<svg width="512" height="512" viewBox="0 0 512 512" fill="none" xmlns="http://www.w3.org/2000/svg">
<rect width="512" height="512" rx="69" fill="#181818"/>
<path d="M393.461 357.843C403.478 367.861 403.478 383.443 393.461 393.461C388.452 398.47 382.33 400.696 375.652 400.696C368.974 400.696 362.852 398.47 357.843 393.461L256 291.617L154.157 393.461C149.148 398.47 143.026 400.696 136.348 400.696C129.67 400.696 123.548 398.47 118.539 393.461C108.522 383.443 108.522 367.861 118.539 357.843L220.383 256L118.539 154.157C108.522 144.139 108.522 128.556 118.539 118.539C128.556 108.522 144.139 108.522 154.157 118.539L256 220.383L357.843 118.539C367.861 108.522 383.443 108.522 393.461 118.539C403.478 128.556 403.478 144.139 393.461 154.157L291.617 256L393.461 357.843Z" fill="white"/>
</svg>
